<?xml version="1.0" encoding="UTF-8" standalone="no"?>
<!-- Created with Inkscape (http://www.inkscape.org/) -->

<svg
   version="1.1"
   id="svg1"
   width="580"
   height="580"
   viewBox="0 0 580 580"
   sodipodi:docname="logo.svg"
   inkscape:version="1.3.2 (091e20e, 2023-11-25)"
   xmlns:inkscape="http://www.inkscape.org/namespaces/inkscape"
   xmlns:sodipodi="http://sodipodi.sourceforge.net/DTD/sodipodi-0.dtd"
   xmlns="http://www.w3.org/2000/svg"
   xmlns:svg="http://www.w3.org/2000/svg">
  <metadata>
    Copyright © 2024 Andrii Melnyk. All rights reserved.
  </metadata>
  <defs
     id="defs1" />
  <sodipodi:namedview
     id="namedview1"
     pagecolor="#ffffff"
     bordercolor="#000000"
     borderopacity="0.25"
     inkscape:showpageshadow="2"
     inkscape:pageopacity="0.0"
     inkscape:pagecheckerboard="0"
     inkscape:deskcolor="#d1d1d1"
     inkscape:zoom="1.0676168"
     inkscape:cx="300.66969"
     inkscape:cy="289.89803"
     inkscape:window-width="1312"
     inkscape:window-height="790"
     inkscape:window-x="0"
     inkscape:window-y="38"
     inkscape:window-maximized="0"
     inkscape:current-layer="g1" />
  <g
     inkscape:groupmode="layer"
     inkscape:label="Image"
     id="g1">
    <g
       id="g2"
       style="display:inline">
      <path
         style="display:inline;fill:#8dc084"
         d="m 276.66667,522.01406 -8.33334,-0.52035 -6.66666,-0.79399 -6.66667,-0.794 -10,-1.94481 -10,-1.9448 -8.05057,-2.29543 -8.05057,-2.29543 -8.37218,-3.03481 -8.37217,-3.0348 -8.12226,-3.67439 -8.12227,-3.67438 -6.77545,-3.75124 -6.77546,-3.75123 -6.55031,-4.08554 -6.55031,-4.08553 -7.46256,-5.5917 -7.46256,-5.5917 L 138,465.64889 131.66667,460.14785 123.32579,451.57393 114.98492,443 109.09704,435.66667 103.20916,428.33333 96.980289,419 l -6.228875,-9.33333 -4.706172,-8.65663 -4.706172,-8.65663 -3.085041,-7.01004 -3.085042,-7.01004 -2.621191,-6.94005 -2.621192,-6.94006 -2.632308,-9.0019 -2.632308,-9.0019 -1.991779,-9.87252 -1.991778,-9.87252 -1.150903,-9.18552 -1.150903,-9.18553 -0.0059,-18 -0.0059,-18 1.198254,-9.33333 1.198254,-9.33333 1.95242,-9.73518 1.952421,-9.73517 2.637562,-8.93149 2.637563,-8.9315 2.687464,-7.15296 2.687464,-7.15297 3.384628,-7.5137 3.384629,-7.5137 3.06541,-5.66667 3.06541,-5.66666 4.93695,-7.96989 4.93695,-7.96988 6.545496,-8.69679 6.5455,-8.69678 6.62971,-7.33333 6.62971,-7.33333 5.81498,-5.49149 5.81497,-5.49149 6.87439,-5.65403 6.87438,-5.65403 7.25698,-5.08833 7.25697,-5.088334 7.1597,-4.257085 7.1597,-4.257085 7.17363,-3.593913 7.17364,-3.593914 6.36546,-2.705689 6.36546,-2.705688 8.96787,-3.075105 8.96788,-3.075106 L 231,65.9889 l 7.33333,-1.946481 9.10447,-1.668191 9.10447,-1.668192 9.7099,-1.019685 9.70991,-1.019684 H 290 304.03792 l 9.70991,1.019684 9.7099,1.019685 9.10447,1.668192 9.10447,1.668191 L 349,65.9889 l 7.33333,1.946481 8.96788,3.075106 8.96787,3.075105 6.36546,2.705688 6.36546,2.705689 7.17364,3.593914 7.17363,3.593913 7.1597,4.257085 7.1597,4.257085 7.25697,5.088334 7.25698,5.08833 6.87438,5.65403 6.87439,5.65403 5.81497,5.49149 5.81498,5.49149 6.62971,7.33333 6.62971,7.33333 6.5455,8.69678 6.5455,8.69679 4.93695,7.96988 4.93695,7.96989 3.06541,5.66666 3.06541,5.66667 3.38463,7.5137 3.38463,7.5137 2.68746,7.15297 2.68746,7.15296 2.63757,8.9315 2.63756,8.93149 1.95242,9.73517 1.95242,9.73518 1.19825,9.33333 1.19826,9.33333 -0.006,18 -0.006,18 -1.1509,9.18553 -1.1509,9.18552 -1.99178,9.87252 -1.99178,9.87252 -2.63231,9.0019 -2.6323,9.0019 -2.6212,6.94006 -2.62119,6.94005 -3.08504,7.01004 -3.08504,7.01004 -4.70617,8.65663 -4.70617,8.65663 -6.22888,9.33333 -6.22887,9.33333 -5.88788,7.33334 -5.88788,7.33333 -8.34087,8.57393 -8.34088,8.57392 -6.33333,5.50104 -6.33333,5.50104 -7.46256,5.5917 -7.46256,5.5917 -6.55031,4.08553 -6.55031,4.08554 -6.77546,3.75123 -6.77545,3.75124 -8.12227,3.67438 -8.12226,3.67439 -8.37217,3.0348 -8.37218,3.03481 -8.05057,2.29543 -8.05057,2.29543 -10,1.9561 -10,1.9561 -9.66667,1.00511 -9.66666,1.00512 -10.33334,0.29794 L 285,522.53441 Z m 40.77606,-29.78995 2.1169,-1.23633 0.22917,-0.68752 0.22917,-0.68751 -0.91985,-1.25797 -0.91985,-1.25797 -2.35655,1.11826 -2.35656,1.11826 h -2.63399 -2.63399 l -2.24451,-1.51257 -2.24451,-1.51258 -2.00388,-3.24119 -2.00387,-3.24119 -0.25378,-4.49129 -0.25378,-4.4913 1.35822,-3.07049 1.35822,-3.07049 2.19031,-1.332 2.1903,-1.33201 2.68838,-0.40133 2.68839,-0.40134 1.95262,0.74441 1.95263,0.74442 1.31226,-1.31226 1.31225,-1.31226 -2.26488,-1.38077 -2.26488,-1.38077 -4.19323,-0.002 -4.19322,-0.002 -2.53657,1.29406 -2.53656,1.29406 -2.02164,2.30252 -2.02164,2.30252 -1.16821,3.05891 -1.16821,3.05892 0.30919,5.17784 0.30919,5.17784 1.41192,2.74431 1.41191,2.74432 1.71418,2.03718 1.71418,2.03719 3.48435,1.76932 3.48436,1.76933 3.82958,-0.3206 3.82958,-0.3206 z M 247.27449,480.3106 250,471.6212 v -2.86188 -2.86188 l -1.88587,-1.88587 -1.88587,-1.88587 -2.61413,-0.7258 -2.61413,-0.7258 -1.35166,-0.004 -1.35167,-0.004 -1.47877,1.03577 -1.47877,1.03577 0.6383,-1.67884 0.63829,-1.67883 -0.47453,-0.26477 -0.47452,-0.26476 -1.8097,-0.43227 -1.80971,-0.43228 -4.019,12.47806 -4.01901,12.47806 0.49538,0.48154 0.49537,0.48153 1.7162,0.42338 1.7162,0.42338 2.94122,-9.39661 2.94122,-9.3966 2.34258,-0.69283 2.34258,-0.69283 2.65132,0.8799 2.65132,0.87989 0.63556,1.80923 0.63557,1.80922 -2.86209,9.06002 -2.86209,9.06001 0.26629,0.26629 0.26629,0.26629 1.64225,0.62815 1.64225,0.62815 0.44115,-0.43034 L 244.54897,489 Z m 96.67029,6.98312 7.72189,-2.03962 2.0493,-0.64002 2.0493,-0.64001 -0.29163,-1.98704 L 355.182,480 l -0.42433,5.9e-4 -0.42434,5.9e-4 -7.33333,1.98425 -7.33333,1.98424 -0.83334,0.0152 L 338,484 l 0.0171,-0.83333 0.0171,-0.83334 -3.79303,-14.5 -3.79303,-14.5 h -0.85937 -0.85937 l -1.7425,0.79394 -1.74251,0.79394 0.35722,1.0394 0.35723,1.03939 2.90556,10.33333 2.90557,10.33334 1.20043,5 1.20044,5 0.22699,0.83333 0.22699,0.83333 h 0.79903 0.79904 z M 380.5,472.89732 390,468.44023 v -0.51005 -0.51005 l -0.65588,-1.7251 -0.65589,-1.72511 -3.99927,2.01883 -3.99928,2.01882 -2.10665,-4.17045 -2.10665,-4.17045 -3.87225,-8.1899 -3.87225,-8.18991 3.63406,-1.78231 L 376,439.72224 v -0.7337 -0.7337 l -0.95383,-1.29409 -0.95384,-1.29408 -9.68416,4.8161 -9.68416,4.81611 0.6963,1.99739 0.6963,1.99739 3.97744,-2.00781 3.97745,-2.00781 5.96425,12.3165 5.96425,12.3165 v 0.26385 0.26386 l -3.5,1.58762 -3.5,1.58763 -0.19163,0.10685 -0.19162,0.10685 0.79863,1.75282 0.79864,1.75281 0.39299,0.0105 0.39299,0.0105 z m -171.49428,0.52603 2.67238,-1.21404 2.07905,-2.3679 2.07904,-2.3679 1.16788,-3.05805 1.16788,-3.05806 -0.32622,-3.39503 -0.32622,-3.39503 -1.32105,-1.78367 L 214.8774,451 l -2.17987,-1.48377 -2.17987,-1.48377 -2.32314,-0.43582 -2.32314,-0.43582 -2.76902,0.82207 -2.76903,0.82207 -2.81148,2.91976 -2.81148,2.91975 -1.07967,3.71393 -1.07967,3.71393 0.77025,3.21074 0.77024,3.21075 2.20408,2.13628 2.20409,2.13628 2.58349,0.92088 2.58349,0.92088 1.33333,0.0146 1.33333,0.0146 z M 199.75758,468.24242 198,466.48485 v -3.35052 -3.35052 l 1.63934,-2.79733 1.63935,-2.79733 1.77228,-1.16124 1.77228,-1.16124 h 2.39908 2.39908 l 1.85596,2.07718 1.85596,2.07719 v 1.74546 1.74547 l -0.81733,2.72802 -0.81733,2.72801 -2.516,2.516 -2.516,2.516 h -2.57576 -2.57576 z m -17.18889,-17.21826 6.69516,-8.30918 0.42708,-2.2765 0.42707,-2.2765 -1.09577,-2.119 -1.09577,-2.11899 -3.1299,-2.00128 -3.12989,-2.00128 -1.7908,0.25091 -1.7908,0.25092 2.99834,-3.71163 2.99833,-3.71163 1.75533,-2.23276 1.75533,-2.23275 -1.62953,-1.25242 -1.62954,-1.25242 -0.66666,-0.007 -0.66667,-0.007 -1.4156,2.15842 -1.4156,2.15841 -10.40756,12.61061 -10.40757,12.61061 0.76834,0.92579 0.76833,0.92579 1.10741,0.59266 1.1074,0.59267 6.23006,-7.62906 6.23005,-7.62907 h 1.186 1.186 l 1.8647,0.7939 1.86471,0.79389 1.5,1.32232 1.5,1.32231 v 1.32087 1.32086 l -1.80118,2.39626 -1.80117,2.39626 -4.62308,5.56913 -4.62308,5.56912 1.92425,1.57357 1.92426,1.57356 0.10343,0.024 0.10343,0.024 z m 248.5243,-15.11152 1.51226,-1.42069 -2.63596,-4.80285 -2.63596,-4.80285 0.0315,-0.60979 0.0314,-0.60979 3.95345,-4.30238 3.95345,-4.30239 5.1519,2.15043 5.1519,2.15042 1.67229,-1.67228 1.67229,-1.67229 -0.64243,-0.57717 -0.64242,-0.57717 -17.17635,-6.83885 -17.17635,-6.83885 -0.9645,0.80047 -0.9645,0.80046 -0.42208,1.32985 -0.42208,1.32985 1.32067,1.44328 1.32067,1.44328 7.89726,14.5 7.89727,14.5 h 0.30203 0.30202 z m -9.27579,-20.81488 -3.09172,-5.55236 -1.02941,-0.85433 -1.0294,-0.85433 v -0.63043 -0.63044 l 1.83333,1.2778 1.83333,1.27779 5,1.85728 5,1.85729 0.4396,0.41032 0.43959,0.41032 -3.1518,3.49172 -3.15179,3.49173 z m -272.48387,16.2901 v -0.61214 l 0.34423,-0.89706 0.34424,-0.89705 -2.32801,-1.25371 -2.328,-1.25371 -1.07632,-1.18932 -1.07631,-1.18932 0.42989,-1.35447 0.42989,-1.35447 6.11048,-5.09841 6.11048,-5.09841 3.69957,4.13624 3.69958,4.13625 1.6444,-1.33156 1.64441,-1.33156 -3.49093,-4.01361 -3.49093,-4.01361 0.0344,-0.55264 0.0344,-0.55263 2.69531,-2.1592 2.69532,-2.15919 -1.56306,-0.57842 -1.56306,-0.57842 -1,-0.34588 -1,-0.34588 -1.73634,1.6153 -1.73635,1.6153 -2.14955,-2.4482 -2.14955,-2.4482 -1.6141,0.73543 -1.61411,0.73544 v 0.65776 0.65776 l 2.08872,2.37892 2.08872,2.37892 -0.25538,0.1849 -0.25539,0.1849 -6.17786,5.18079 -6.17786,5.1808 -0.9888,1.91214 -0.98881,1.91215 v 1.38989 1.3899 l 1.14764,1.75153 1.14765,1.75152 2.98287,1.89169 2.98288,1.89168 h 1.20281 1.20281 z m 317.69871,-21.44981 1.06628,-2.06196 -0.21583,-0.16273 -0.21582,-0.16273 -4.7339,-2.89665 -4.7339,-2.89665 1.96033,-3.712 1.96032,-3.712 -0.24292,-4.40625 -0.24292,-4.40625 -1.65018,-2.4108 -1.65017,-2.41079 -3.33333,-1.82839 -3.33333,-1.82839 -3.79933,-0.0101 -3.79933,-0.0101 -1.86734,1.38352 -1.86734,1.38352 -1.55737,2.27204 -1.55738,2.27203 0.32629,2.49268 0.32629,2.49269 -1.40067,-0.98108 -1.40068,-0.98107 -0.88505,2.10492 -0.88505,2.10491 0.51681,0.49737 0.51681,0.49737 15.66667,9.70551 15.66667,9.70551 0.14954,0.0139 0.14955,0.0139 z m -18.92653,-14.3829 -6.22782,-3.79006 -0.56744,-1.49247 -0.56744,-1.49248 0.66951,-2.42475 0.6695,-2.42475 2.12576,-1.29616 2.12575,-1.29616 1.35874,-0.002 1.35874,-0.002 2.96922,1.5 2.96921,1.5 1.50538,2.26526 1.50538,2.26525 v 1.92283 1.92282 l -0.92884,2.14526 -0.92884,2.14525 -0.9045,1.17261 -0.90449,1.1726 z m -316.36156,1.07049 15.89367,-2.7077 0.24671,-0.24671 0.2467,-0.24671 -1.23218,-1.69131 -1.23218,-1.69131 L 145,390.0242 144.33333,390.0065 135,391.59269 l -9.33333,1.58618 -1.33334,0.5265 -1.33333,0.5265 3.76131,-3.94929 3.76131,-3.9493 4.07202,-4.64092 4.07203,-4.64092 -0.0148,-0.35908 -0.0148,-0.35908 -1.26748,-1.6495 -1.26748,-1.64951 -1.2177,1.11351 -1.21769,1.1135 -8.33334,9.61519 -8.33333,9.61519 -2.59126,0.36962 -2.59126,0.36961 -1.57541,-0.59897 -1.5754,-0.59897 v -1.34983 -1.34984 h -2.08723 -2.08723 l 0.39207,2.41602 0.39206,2.41602 1.09812,1.2134 1.09811,1.21341 1.43038,0.27979 1.43038,0.27979 2.75847,0.0908 2.75847,0.0908 z m 353.59824,-21.98035 0.83728,-2.02138 -0.2564,-0.2128 -0.2564,-0.21281 -5,-1.8944 -5,-1.89439 -0.24165,-0.16863 -0.24165,-0.16862 1.07498,-3.15489 1.07498,-3.15489 -0.004,-2.04791 -0.004,-2.0479 -0.7397,-2.66447 -0.73969,-2.66447 -2.75879,-2.75878 -2.75879,-2.75879 -2.66446,-0.73969 -2.66447,-0.7397 -2.28952,-0.004 -2.28951,-0.004 -2.9423,1.42434 -2.94229,1.42434 -1.26625,2.07566 -1.26625,2.07566 -0.41002,2.16961 -0.41002,2.16961 1.08082,1.64953 1.08081,1.64953 -1.76519,-0.67112 -1.7652,-0.67113 -0.23393,0.23393 -0.23393,0.23393 -0.40801,2.04006 -0.40801,2.04006 6.2344,2.39573 6.2344,2.39573 11.33333,4.32435 11.33334,4.32435 0.41912,0.0246 0.41912,0.0246 z M 463.38854,363.77988 456.44374,361 l -0.59023,-1.77174 -0.59022,-1.77173 0.57666,-2.22827 0.57665,-2.22826 2.2917,-1.55331 2.2917,-1.55331 2.66327,0.42063 2.66327,0.42063 1.93371,1.13268 1.93371,1.13268 1.31588,1.7655 1.31588,1.76551 -0.0378,2.73842 -0.0378,2.73842 -0.84232,2.32941 -0.84233,2.32941 -0.36607,-0.0534 -0.36608,-0.0534 z M 133.06338,365.90729 134.95023,365 136.47511,362.73474 138,360.46949 v -3.53366 -3.53367 l -1.66428,-5.20108 -1.66427,-5.20108 -0.60856,-0.94146 -0.60856,-0.94145 -3.22716,1.35845 L 127,343.834 l -13.55386,4.4897 -13.553854,4.48971 0.434364,1.75996 0.43437,1.75996 0.56071,0.57456 0.56072,0.57456 6.22709,-2.07456 6.22709,-2.07456 h 0.50676 0.50676 l 1.68013,3.79909 1.68014,3.79909 1.73087,2.26929 1.73087,2.26929 2.08059,0.94035 2.08058,0.94036 2.4216,-0.26811 2.4216,-0.26812 z m -8.92733,-4.9537 -1.49396,-1.04641 -1.65438,-3.26476 -1.65438,-3.26476 4.7e-4,-0.8555 4.6e-4,-0.85549 5.16621,-1.87793 5.1662,-1.87793 1.31531,-0.12207 1.31532,-0.12207 0.93472,3.45109 0.93472,3.45109 -0.45389,2.41943 -0.45389,2.41942 -1.29614,1.29615 L 130.66667,362 h -2.51833 -2.51833 z M 362,290.66667 V 234 h -72 -72 v 56.66667 56.66666 h 72 72 z m -117.99864,23.66804 -4.97659,-5.01003 10.15174,-10.16761 10.15174,-10.16762 -10.16007,-10.16007 -10.16007,-10.16007 5.00135,-5.00135 5.00135,-5.00135 15.16132,15.17207 15.16132,15.17208 -15.17775,15.16698 -15.17775,15.16699 z M 290,311.33333 v -6.66666 h 23.33333 23.33334 V 311.33333 318 H 313.33333 290 Z m -181.72755,-2.06426 2.60578,-0.72349 2.47065,-1.635 2.47065,-1.635 1.7569,-3.22801 1.7569,-3.22801 v -3.66698 -3.66699 l -1.86281,-3.56584 -1.86282,-3.56583 -3.1888,-1.97149 -3.18881,-1.97148 -3.78171,-0.26438 -3.78171,-0.26438 -3.655286,1.92115 -3.655283,1.92115 -1.980662,2.81814 -1.980662,2.81813 -0.275118,4.32065 -0.275118,4.32065 1.751467,3.57987 1.751466,3.57987 2.582024,1.78934 2.582024,1.78935 1.910908,0.57245 1.9109,0.57246 1.66667,0.0536 1.66667,0.0536 z m 374.27053,-1.20597 2.71311,-1.38413 1.8125,-2.3763 1.81249,-2.37631 0.87189,-3.36119 0.87188,-3.3612 -0.69578,-3.24428 -0.69577,-3.24428 -1.45984,-2.16627 -1.45985,-2.16626 -2.66109,-1.87029 -2.66109,-1.87028 -3.4801,-0.41217 -3.48011,-0.41216 -2.9877,0.8365 -2.98771,0.83651 -2.61609,2.23928 -2.6161,2.23928 -1.15314,2.84856 -1.15314,2.84856 0.02,3.50995 0.02,3.50996 1.45623,3.00817 1.45623,3.00817 2.26374,1.72663 2.26373,1.72664 2.50136,0.93243 2.50135,0.93244 3.41493,-0.28692 3.41493,-0.28691 z m -356.50459,-64.49742 0.67206,-1.76765 -0.23001,-0.69004 -0.23001,-0.69003 -6.29188,-2.10797 -6.29188,-2.10797 0.0718,-1.60101 0.0718,-1.60101 0.67323,-3.91367 0.67324,-3.91367 -0.51153,-2.26805 -0.51152,-2.26804 -1.12304,-1.71398 -1.12305,-1.71398 -3.01202,-1.33236 -3.01203,-1.33236 -2.27933,0.4276 -2.27933,0.42761 -2.361899,2.07377 -2.361894,2.07377 -1.549503,3.06001 -1.549502,3.06002 -1.07435,3.621 -1.074349,3.621 v 1.21233 1.21233 l 1.5,0.0101 1.5,0.0101 14.999997,4.92398 15,4.92397 0.5165,0.066 0.5165,0.0659 z m -23.00158,-10.6153 -4.62986,-1.61705 h -1.2484 -1.2484 l 0.439967,-1.5 0.439967,-1.5 1.329839,-2.83073 1.329839,-2.83074 1.698358,-1.33593 L 102.84648,220 h 1.85894 1.85895 l 2.05115,1.72593 2.05115,1.72593 -0.004,3.1074 -0.004,3.10741 -0.69428,2.5 -0.69429,2.5 -0.802,-0.0496 -0.80199,-0.0496 z m 367.15642,9.63861 2.80677,-1.41101 1.23761,-1.08899 1.2376,-1.08899 1.2624,-2.47344 L 478,234.05312 v -1.98316 -1.98316 l -0.71107,-1.87673 -0.71108,-1.87674 -1.40513,-1.5 -1.40514,-1.5 -1.38379,-0.0422 -1.38379,-0.0423 1.64225,-0.65555 1.64225,-0.65555 0.21604,-0.21604 0.21605,-0.21605 -0.79864,-1.75281 -0.79864,-1.75282 -0.72632,-0.0165 -0.72632,-0.0165 -17.16667,6.49958 -17.16667,6.49959 v 1.05616 1.05615 l 0.86001,1.17614 0.86002,1.17613 5.28919,-2.10109 5.2892,-2.10109 0.26751,0.80253 0.26751,0.80254 1.77444,3.41651 1.77445,3.41651 3.21751,2.16666 3.21752,2.16667 h 3.61788 3.61788 z M 459.35601,238.16563 457.04536,237 l -1.14302,-2 -1.14302,-2 -0.41001,-1.66667 -0.41,-1.66666 6.54862,-2.5 6.54863,-2.5 h 1.19967 1.19967 l 1.94872,1.94871 1.94871,1.94872 v 2.08439 2.08439 l -1.04421,2.01928 -1.04421,2.01928 -2.78912,1.26631 -2.78912,1.2663 -2,0.0136 -2,0.0136 z m -311.02287,-19.62031 1.78499,-2.12134 -0.40688,-2.03442 -0.40689,-2.03441 -1.76518,-2.67757 L 145.77399,207 135.43922,195.16667 125.10444,183.33333 h -0.40606 -0.40606 l -0.7668,2.03148 -0.7668,2.03148 4.39899,5.13519 4.39899,5.13519 3.05499,3.26229 3.05498,3.2623 -1.33334,-0.47745 -1.33333,-0.47745 -9,-1.61535 -9,-1.61534 -1.10145,-0.003 -1.10145,-0.003 -0.73188,2.09948 -0.73189,2.09948 v 0.14044 0.14043 l 13.83334,2.24434 13.83333,2.24433 1.79919,1.76366 1.79919,1.76366 0.46578,1.85582 0.46579,1.85581 -1.15101,0.84164 -1.151,0.84163 0.74282,1.38798 0.74282,1.38797 h 0.91728 0.91728 z M 138,204.33333 V 204 h 0.33333 0.33334 v 0.33333 0.33334 H 138.33333 138 Z m 318.38392,6.00561 2.91398,-1.70771 1.67686,-2.86136 1.67687,-2.86136 0.41225,-2.06124 0.41225,-2.06124 -0.78997,-2.39364 -0.78998,-2.39364 -1.99937,-1.99938 L 457.89744,190 456.44872,189.9549 455,189.9098 l 1.5,-0.72342 1.5,-0.72343 -0.0222,-0.39812 -0.0222,-0.39812 -1.35768,-1.63131 -1.35767,-1.63131 -1.12015,0.69282 -1.12014,0.69282 -15,9.22057 -15,9.22057 -0.24983,0.18997 -0.24983,0.18997 1.26389,1.99618 1.2639,1.99619 4.93266,-3.09267 4.93267,-3.09266 1.02254,1.62443 1.02254,1.62443 2.73712,2.70048 2.73713,2.70049 2.2936,0.76871 2.29361,0.76872 3.23497,-0.27922 3.23497,-0.27921 z m -11.46451,-3.29666 -2.08058,-0.90553 -1.65439,-2.23504 -1.6544,-2.23504 -0.43327,-0.77224 -0.43328,-0.77224 6.74736,-4.1701 6.74736,-4.17009 2.3361,1.25807 2.3361,1.25807 1.00806,2.11392 1.00805,2.11391 -0.43289,1.72479 -0.4329,1.72479 -2.04521,2.32936 -2.04521,2.32937 -2.44515,0.67914 -2.44516,0.67914 -1,-0.0224 -1,-0.0224 z m -6.744,-31.73473 9.15792,-16.69245 -0.0209,-0.47422 -0.021,-0.47421 -1.66265,-1.21057 -1.66266,-1.21057 -2.14973,1.29276 -2.14972,1.29276 -15,5.85352 -15,5.85352 -0.29798,0.25116 -0.29798,0.25115 1.6846,1.68461 1.68461,1.68461 5.17908,-2.05735 5.17909,-2.05735 2.76762,3.14278 2.76762,3.14279 1.16667,1.48157 1.16667,1.48158 v 0.34575 0.34575 l -2.60582,4.49172 -2.60583,4.49173 1.39786,1.8907 1.39786,1.89071 h 0.38338 0.38337 z m -8.39712,-4.13275 -3.00843,-3.49187 5.99317,-2.49461 5.99316,-2.49461 2.12191,-1.45732 2.1219,-1.45732 -2.07138,2.27713 -2.07137,2.27713 -2.80866,5.16667 -2.80865,5.16667 h -0.22661 -0.22662 z m -270.03752,10.8888 2.0741,-1.26475 1.75923,-3.53032 1.75923,-3.53032 v -1.18974 -1.18973 l -1.69771,-0.4261 -1.69771,-0.4261 -0.16041,0.24673 -0.16041,0.24673 -1.32688,3.33333 -1.32688,3.33334 -1.64833,0.19441 -1.64833,0.19441 -6.16667,-5.06077 -6.16667,-5.06078 v -0.39948 -0.39949 l 3,-3.64407 3,-3.64407 v -0.82009 -0.82009 l -1.21787,-1.10216 -1.21787,-1.10216 -3.51489,4.33217 -3.51488,4.33217 h -0.3459 -0.3459 l -2.27787,-2 -2.27788,-2 h -0.5678 -0.5678 l -0.35929,2.16666 -0.35929,2.16667 1.89664,1.77601 1.89665,1.776 -2.30454,2.69234 -2.30455,2.69234 1.78986,1.17276 1.78985,1.17276 2.18663,-2.52956 2.18664,-2.52956 6.17765,5.14167 6.17766,5.14166 2.03737,0.88736 2.03738,0.88736 0.66667,0.0236 0.66667,0.0236 z m 18.8666,-18.66228 1.60737,-1.2357 -6.41054,-7.78542 -6.41053,-7.78542 0.6531,-1.71779 0.6531,-1.7178 1.33405,-1.8735 1.33406,-1.8735 1.31601,-0.41769 1.31601,-0.41768 1.25517,0.39837 1.25517,0.39838 5.86108,7.14655 5.86107,7.14655 0.46155,0.54446 0.46156,0.54447 1.91595,-1.64804 1.91596,-1.64804 -1.04139,-1.22976 -1.04139,-1.22976 -5.27341,-6.33333 -5.27341,-6.33334 -1.01229,-0.82552 -1.01229,-0.82552 -2,-0.56555 -2,-0.56556 -1.93345,0.65786 -1.93345,0.65786 -2.56655,2.56655 L 165.33333,140 v 2.02531 2.0253 l -5.06262,-6.08268 -5.06262,-6.08269 -1.60405,1.50692 L 152,134.89909 v 0.76758 0.76758 l 1.75287,1.61621 1.75286,1.61621 10.3072,12.5 10.30721,12.5 0.43993,-0.0148 0.43993,-0.0148 z m 200.83138,-19.18274 1.0809,-1.78142 -3.92649,-1.85694 -3.92649,-1.85694 v -0.27829 -0.2783 l 5.71014,-11.90461 5.71015,-11.9046 0.30849,-0.30848 0.30848,-0.30848 3.63737,1.78393 3.63736,1.78393 0.96848,-1.87282 0.96847,-1.87282 -9.7377,-4.7917 -9.73771,-4.79169 -1.19998,1.82927 -1.19999,1.82927 3.97989,1.80661 3.97988,1.8066 v 0.27823 0.27823 l -5.72606,11.92955 -5.72606,11.92956 -0.29257,0.2964 -0.29257,0.29641 -3.63412,-1.78233 -3.63411,-1.78234 -0.96377,1.81926 -0.96376,1.81926 9.44984,4.79836 9.44985,4.79836 0.34559,0.035 0.34558,0.035 z m -165.83656,-3.79087 2.39921,-1.82997 1.08578,-2.09967 1.08579,-2.09967 -0.0397,-3.36587 -0.0397,-3.36586 -1.02207,-2.41952 -1.02208,-2.41952 -1.77521,-2.10972 -1.7752,-2.10971 -2.55625,-1.3041 L 207.38645,116 h -2.71978 -2.71979 l -2.58396,1.31824 -2.58397,1.31824 -1.31382,1.84843 -1.31381,1.84842 -0.66931,2.43016 -0.6693,2.43016 0.58834,3.14924 0.58834,3.14924 1.29704,2.09864 1.29703,2.09864 1.5416,1.40756 1.54161,1.40757 2,1.09235 2,1.09235 3.76815,-0.21578 3.76815,-0.21578 z M 205,138.06343 l -1.33333,-0.56917 -1.92667,-1.9138 -1.92667,-1.91379 -0.90666,-2.14526 L 198,129.37616 v -2.39858 -2.39857 l 0.68643,-1.2826 0.68643,-1.28261 2.0289,-1.04918 2.02889,-1.04919 1.91427,0.42045 1.91426,0.42044 2.40016,2.65669 2.40016,2.65669 0.64416,1.69428 0.64417,1.69427 0.10363,2.64484 0.10364,2.64484 -1.61089,1.60989 -1.61088,1.60988 -2,0.33246 -2,0.33245 z m 31.10648,-7.27727 0.4398,-0.45283 -2.92281,-9 -2.92281,-9 0.35577,-1.14934 0.35576,-1.14935 1.90447,-1.3561 1.90446,-1.3561 2.0742,-0.41484 2.0742,-0.41484 1.28548,1.16335 1.28549,1.16335 2.74906,8.4236 2.74906,8.42361 0.2505,0.80918 0.25051,0.80917 2.03019,-0.70772 L 252,125.86957 v -0.84986 -0.84985 l -2.72935,-8.53739 -2.72935,-8.53739 -1.03632,-1.58161 -1.03631,-1.58162 -1.8679,-0.96592 L 240.73288,102 h -1.89185 -1.89184 l -2.97233,1.5 -2.97233,1.5 -0.76723,1.57386 -0.76723,1.57386 -0.44663,-1.40719 -0.44662,-1.4072 h -0.59038 -0.59037 l -1.70761,0.77804 -1.70761,0.77804 0.42387,1.38863 0.42388,1.38863 3.63385,11.22685 3.63385,11.22686 1.78518,-0.4407 1.78519,-0.4407 z m 113.3564,-0.47091 0.76762,-1.68475 -0.61525,-0.54996 -0.61525,-0.54995 -7.5,-1.91544 -7.5,-1.91544 v -0.46088 -0.46088 l 4.04619,-15.12056 4.0462,-15.12056 -0.21286,-0.179975 -0.21286,-0.179975 -2.46535,-0.445481 -2.46534,-0.44548 -0.40778,2.523707 -0.40778,2.523707 L 332.24708,110 l -3.67335,13.66667 -0.34212,1.38249 -0.34212,1.38249 9.88859,2.70512 9.88859,2.70511 0.51429,0.0791 0.51429,0.0791 z m -34.79621,-6.98803 2.33333,-0.66534 0.86745,-0.55803 0.86744,-0.55804 -0.81952,-1.79866 -0.81953,-1.79867 -1.04792,0.43982 -1.04792,0.43981 -3.12403,0.33333 -3.12403,0.33334 -2.38187,-1.47208 -2.38187,-1.47207 -1.73966,-2.96852 -1.73967,-2.96851 -0.31929,-4.14014 -0.31928,-4.14013 1.23152,-3.262716 1.23151,-3.262719 2.54816,-2.059503 2.54815,-2.059503 h 3.83146 3.83145 l 1.71347,1.122703 1.71346,1.122704 1.23669,-1.366525 1.23668,-1.366524 -1.96452,-1.56646 -1.96453,-1.56646 -3.19857,-0.767324 -3.19856,-0.767324 -3.32103,0.796701 -3.32102,0.796701 -2.60619,1.887919 -2.6062,1.887918 -1.83031,3.741015 -1.83031,3.741014 -0.32567,4.551683 -0.32567,4.55168 1.12294,3.38085 1.12293,3.38084 1.98425,2.49685 1.98424,2.49684 2.14268,1.31823 2.14269,1.31823 2,0.49168 2,0.49169 1.66667,0.0645 1.66666,0.0645 z"
         id="path9" />
      <path
         style="display:inline;opacity:1;fill:#323232;stroke:#343434;stroke-width:3;stroke-linecap:round;stroke-linejoin:round;stroke-dasharray:none;stroke-opacity:1;paint-order:normal"
         d="M 0,290 V 0 H 290 580 V 290 580 H 290 0 Z M 311.66667,521.98011 319,521.29466 l 10,-1.64981 10,-1.64981 8,-2.01452 8,-2.01452 9.91782,-3.34826 9.91781,-3.34825 9.08219,-4.00653 9.08218,-4.00652 8,-4.39427 8,-4.39426 7.57502,-4.92777 7.57503,-4.92777 5.42497,-4.09081 5.42498,-4.0908 6.66574,-5.71538 6.66575,-5.71538 6.95796,-6.98684 6.95796,-6.98683 6.79568,-8.1877 6.79568,-8.1877 5.97946,-8.82546 5.97946,-8.82547 3.46232,-5.9009 3.46232,-5.90091 3.2239,-6.43243 3.22391,-6.43243 2.77994,-6.54043 2.77994,-6.54043 2.01789,-5.45957 2.01788,-5.45957 2.58626,-8.82847 2.58626,-8.82847 1.72193,-8.50285 1.72192,-8.50284 1.39607,-10.33535 L 522.1743,309 l 0.0405,-18 0.0405,-18 -0.82714,-6.66667 -0.82714,-6.66666 -1.64378,-9.5851 -1.64377,-9.58509 -1.69852,-6.74824 L 513.9164,227 l -1.70117,-5.66667 -1.70116,-5.66666 -4.03441,-10.33334 L 502.44525,195 497.6847,185.66667 492.92415,176.33333 489.06062,170 l -3.86353,-6.33333 -5.07571,-7.24404 -5.0757,-7.24404 -6.77006,-8.08929 -6.77005,-8.0893 -9.26364,-9.04387 -9.26363,-9.04388 -7.32248,-5.82981 -7.32249,-5.82981 -7.66666,-5.188938 L 413,92.874754 l -5.90638,-3.468444 -5.90639,-3.468445 -7.29817,-3.660172 -7.29818,-3.660172 -7.95094,-3.268297 -7.95095,-3.268298 -9.17783,-2.98214 -9.17783,-2.98214 -7,-1.701989 -7,-1.701989 L 328,61.02601 l -10.33333,-1.686658 -8,-0.659124 -8,-0.659124 H 290 278.33333 l -8,0.659124 -8,0.659124 L 252,61.02601 l -10.33333,1.686658 -7,1.701989 -7,1.701989 -9.17783,2.98214 -9.17783,2.98214 -7.95095,3.268298 -7.95094,3.268297 -7.29818,3.660172 -7.29817,3.660172 -5.90639,3.468445 -5.90638,3.468444 -7.66667,5.188938 -7.66666,5.188938 -7.32249,5.82981 -7.32248,5.82981 -9.26363,9.04388 -9.26364,9.04387 -6.77005,8.0893 -6.77006,8.08929 -5.075702,7.24404 -5.075707,7.24404 L 90.939383,170 87.075854,176.33333 82.315301,185.66667 77.554748,195 73.52034,205.33333 69.485933,215.66667 67.784769,221.33333 66.083604,227 l -1.698521,6.74824 -1.698522,6.74824 -1.643773,9.58509 -1.643773,9.5851 -0.827143,6.66666 -0.827144,6.66667 0.04048,18 0.04049,18 1.39607,10.33535 1.396069,10.33535 1.721928,8.50284 1.721928,8.50285 2.599122,8.88842 2.599122,8.88841 2.631602,6.94006 2.631601,6.94005 2.444999,5.66667 2.444998,5.66667 4.177157,8 4.177157,8 3.722761,6 3.722761,6 5.226847,7.45269 5.22685,7.4527 5.78468,6.94428 5.78469,6.94428 7.21531,7.27235 7.21532,7.27234 6.66666,5.71272 6.66667,5.71273 5.42498,4.0908 5.42497,4.09081 7.57503,4.92777 7.57502,4.92777 8,4.39426 8,4.39427 9.08218,4.00652 9.08219,4.00653 9.91781,3.34825 9.91782,3.34826 8,2.01452 8,2.01452 10.11579,1.67915 10.11578,1.67915 5.88422,0.56657 5.88421,0.56656 15.66667,0.0895 15.66666,0.0895 z m -7.52604,-30.09959 -2.85938,-1.38635 -2.20215,-2.74709 -2.20214,-2.74708 -1.19319,-3 -1.1932,-3 -0.008,-4.66667 -0.008,-4.66666 1.12994,-2.66667 1.12994,-2.66667 2.13288,-2.21877 2.13288,-2.21878 2.33333,-1.02923 2.33334,-1.02922 4.02912,-0.0853 4.02913,-0.0853 1.8014,1.1802 1.80141,1.1802 -0.79504,1.27305 -0.79503,1.27306 -1.15834,-0.61993 -1.15833,-0.61992 h -3.61191 -3.6119 l -2.22921,1.50227 -2.22922,1.50226 -1.24804,2.13695 -1.24805,2.13695 -0.36922,3.57744 -0.36923,3.57744 1.0963,3.77111 1.09629,3.77112 2.48493,2.60561 2.48494,2.60562 2.91115,0.86879 2.91115,0.86879 3.26777,-1.16061 3.26777,-1.16061 0.65441,0.40445 0.65441,0.40445 v 0.99325 0.99325 l -2.83333,1.28609 -2.83333,1.2861 -3.33334,-0.0186 L 307,493.26687 Z m -62.3073,-3.00674 -1.16666,-0.30488 v -0.86619 -0.86619 l 2.71797,-8.50179 2.71797,-8.5018 -0.39429,-1.571 -0.3943,-1.57101 -1.95724,-1.01213 -1.95723,-1.01212 -2.86644,0.0102 -2.86644,0.0102 -0.84576,0.53682 -0.84576,0.53681 -2.84208,8.94793 -2.84208,8.94792 -0.97883,0.17088 -0.97883,0.17089 -0.91879,-0.59133 -0.9188,-0.59133 3.88149,-12.1143 3.8815,-12.11431 1.7026,0.42733 1.7026,0.42732 0.18669,0.18669 0.18668,0.18668 -0.66881,1.75913 -0.66882,1.75912 h 0.56853 0.56854 l 0.82993,-1 0.82992,-1 2.41837,0.0507 2.41837,0.0507 2.29655,0.82971 2.29655,0.82971 1.35497,1.81483 1.35496,1.81483 -0.0255,2.47141 -0.0255,2.47141 -2.81298,8.83333 -2.81298,8.83333 -0.47967,-0.0773 L 243,489.17866 Z m 92.53673,-2.4687 -0.43667,-2.73841 -3.00384,-11.33334 L 327.9257,461 326.96285,458.48651 326,455.97302 v -0.50702 -0.50702 l 1.93613,-0.7308 1.93613,-0.73081 2.15659,8.08465 2.15658,8.08465 1.89461,7.2651 1.89461,7.2651 0.28203,0.28203 0.28203,0.28203 7.82396,-2.10215 7.82397,-2.10215 0.56314,0.88835 0.56314,0.88835 0.0102,0.71884 0.0102,0.71883 -3.16666,0.75645 -3.16667,0.75644 -7.09664,1.9298 -7.09664,1.9298 z m 35.36793,-10.79294 -0.40466,-1.05452 v -0.31569 -0.31569 L 373,472.24758 l 3.66667,-1.67866 v -0.20955 -0.20956 l -5.964,-12.40824 -5.964,-12.40824 h -0.68366 -0.68366 l -3.62458,1.60296 -3.62458,1.60297 -0.37259,-1.4248 -0.3726,-1.4248 0.47817,-0.38677 0.47816,-0.38678 8.8716,-4.26882 8.87159,-4.26883 0.6182,0.97744 0.6182,0.97743 0.0102,0.48877 0.0102,0.48877 -3.5,1.7581 -3.5,1.7581 -0.17031,0.14567 -0.17031,0.14566 6.06655,12.60747 6.06655,12.60746 0.20297,0.21032 0.20297,0.21032 4.06746,-2.05325 4.06746,-2.05325 v 0.62174 0.62174 l 0.40808,1.06345 0.40808,1.06344 -8.99279,4.32441 -8.99279,4.32442 h -0.6773 -0.6773 z m -169.40466,-2.55705 -2,-0.89271 -1.79092,-1.91452 -1.79092,-1.91453 -0.70908,-1.87673 -0.70908,-1.87673 v -2.04592 -2.04592 l 0.77371,-2.5824 0.7737,-2.5824 2.3525,-2.74836 2.3525,-2.74837 2.18572,-0.91325 L 203.95718,448 h 2.72118 2.72119 l 1.80022,0.93666 1.80023,0.93665 1.41669,1.56335 1.41669,1.56334 0.81339,1.57466 0.81339,1.57467 -0.0247,3.1874 -0.0247,3.1874 -0.9377,2.23793 -0.9377,2.23794 -1.90677,2.26153 -1.90678,2.26153 -2.69425,1.22383 -2.69425,1.22383 -2,-0.0115 -2,-0.0114 z m 7.69523,-3.88842 2.22573,-1.5 1.58725,-3.08441 1.58724,-3.08442 0.11895,-3.13677 0.11894,-3.13677 -2.17719,-1.94548 -2.17718,-1.94549 h -2.42656 -2.42655 l -2.14001,1.63226 -2.14,1.63226 -1.42292,3.02714 -1.42293,3.02715 v 2.30923 2.30923 l 0.71733,1.57436 0.71733,1.57436 1.78267,1.10594 1.78267,1.10593 1.73475,0.0177 1.73474,0.0177 z m -33.93452,-11.87966 -1.57262,-1.28502 4.7041,-5.5862 4.7041,-5.58621 1.70186,-2.50782 1.70185,-2.50782 v -1.1241 -1.12409 l -1.50909,-1.41772 -1.5091,-1.41773 -2.46949,-1.03181 -2.46949,-1.03182 h -0.94621 -0.9462 l -5.57521,6.79467 -5.57521,6.79467 -0.69556,0.92375 -0.69557,0.92375 -1.49764,-1.21842 -1.49765,-1.21842 L 171.6722,431.33333 183.39749,417 l 0.46792,-0.1441 0.46792,-0.1441 1.26559,0.9566 1.26559,0.95659 -0.64514,0.85417 -0.64513,0.85417 -4.12046,5.05825 -4.12045,5.05825 v 0.32629 0.32629 l 1.98319,-0.29107 1.98319,-0.29107 2.98608,1.74996 2.98607,1.74995 1.03074,1.47158 1.03073,1.47158 -0.002,2.01833 -0.002,2.01833 -1.33479,2.18927 -1.33478,2.18926 -5.07506,6.14407 -5.07506,6.14407 -0.421,0.45267 -0.42099,0.45268 z m 247.23929,-34.75312 -7.66666,-14.12558 -1.44164,-1.73103 -1.44165,-1.73104 1.19523,-1.58455 1.19522,-1.58454 17.41308,6.88348 L 448,415.5441 v 0.45796 0.45796 l -1.26736,1.14694 -1.26737,1.14695 -4.80244,-2.04362 -4.80244,-2.04362 h -0.46098 -0.46098 l -4.17683,4.66517 -4.17684,4.66518 2.69052,5.13456 2.69052,5.13456 -1.08623,1.20026 -1.08622,1.20027 -0.39668,-0.004 -0.39667,-0.004 z m 10.63605,-9.21316 0.0306,-0.34594 -5.16667,-1.91255 -5.16666,-1.91255 -3.56269,-2.28994 -3.56268,-2.28994 -0.23871,0.23871 -0.23871,0.23871 2.53379,2.97639 2.5338,2.97638 2.86291,5.23054 2.86291,5.23053 3.54073,-3.8972 3.54074,-3.8972 z m -287.41901,16.74882 -3.044,-1.93045 -1.08652,-1.55122 -1.08652,-1.55122 v -1.87512 -1.87512 l 1.06612,-1.62711 1.06613,-1.6271 5.72097,-4.84944 5.72098,-4.84944 0.66347,-0.44513 0.66347,-0.44513 -2.11723,-2.4114 L 150,402.62027 v -0.61034 -0.61034 l 1.09618,-0.61345 1.09617,-0.61346 1.97289,2.247 1.97288,2.24699 h 0.72131 0.7213 l 1.4424,-1.35507 1.44241,-1.35507 1.9339,0.74689 1.93389,0.7469 -2.56432,2.23442 -2.56432,2.23443 0.51713,0.87375 0.51713,0.87375 3.02271,3.57164 3.02271,3.57164 -1.30885,0.96303 -1.30885,0.96304 -3.14545,-3.53468 -3.14545,-3.53467 -0.0212,-0.5 -0.0212,-0.5 h -0.60573 -0.60574 l -5.93024,4.94802 -5.93023,4.94801 -0.80839,1.77421 -0.80838,1.77422 2.04497,1.91028 2.04496,1.91029 1.29939,0.41241 1.29939,0.41241 v 0.56721 0.56722 l -0.40466,1.05453 -0.4047,1.05452 h -0.46482 -0.46482 z m 304.72644,-28.66333 -15.7232,-9.78848 0.65841,-1.47554 0.6584,-1.47553 h 0.60862 0.60862 l 1.35259,0.72388 1.35259,0.72389 -0.51189,-1.55722 -0.51189,-1.55722 0.11293,-1.5595 0.11292,-1.5595 1.15465,-1.95466 1.15465,-1.95466 2.72504,-1.31917 2.72505,-1.31918 h 2.65862 2.65862 l 3.29756,1.65529 3.29757,1.65529 1.532,2.26601 1.53201,2.26601 0.67509,2.44497 0.67509,2.44496 -0.72068,3.47151 -0.72069,3.4715 -1.31535,1.99557 -1.31535,1.99556 0.003,0.66667 0.003,0.66666 4.0467,2.33 4.0467,2.33 0.65102,0.78443 0.65102,0.78443 -0.8653,1.38557 -0.86531,1.38557 -0.33963,-0.0693 L 465,411.19469 Z m 8.02479,-6.14687 1.44773,-3.36534 -0.45756,-2.11367 -0.45755,-2.11367 -1.30659,-1.84843 -1.30658,-1.84843 -2.58397,-1.31824 -2.58396,-1.31824 h -2.65605 -2.65605 l -1.8374,1.58047 -1.8374,1.58046 -0.0331,3.54094 -0.0331,3.54093 6.6629,4.15837 6.66289,4.15838 0.76404,-0.6341 0.76404,-0.63409 z m -350.3319,1.77095 -1.63637,-1.63636 v -2.0303 -2.03031 l 0.5,0.0102 0.5,0.0102 0.66667,0.48979 0.66667,0.48979 0.73598,1.33334 0.73598,1.33333 3.93069,0.14431 3.93068,0.14431 8.33333,-9.68032 8.33334,-9.68031 1.17727,-1.07691 1.17726,-1.07692 0.9682,1.27959 0.9682,1.27958 0.0212,0.41589 0.0212,0.4159 -3.73502,4.25077 -3.73503,4.25078 -4.43164,4.59843 -4.43164,4.59843 1.66666,-0.47974 1.66667,-0.47974 10.14682,-1.77325 10.14682,-1.77325 0.98017,1.32122 0.98017,1.32123 -1.12699,0.46694 -1.12699,0.46695 -14.02141,2.36639 -14.02141,2.36639 h -4.17556 -4.17556 z M 466.16728,369.43666 449.33455,363 l 0.01,-1 0.01,-1 0.57168,-0.90216 0.57167,-0.90217 1.41812,0.75896 1.41811,0.75895 v -0.98411 -0.98411 L 452.66667,358.33333 452,357.92131 v -1.98207 -1.98206 l 0.92457,-2.21282 0.92458,-2.21282 2.181,-1.55301 2.181,-1.55301 3.57834,-0.29674 3.57834,-0.29675 2.94037,1.12294 2.94036,1.12293 2.32709,2.57581 2.32708,2.5758 0.48132,3.20963 0.48131,3.20962 -0.69956,3.00895 -0.69955,3.00896 -0.45663,1.42 -0.45662,1.42 4.89017,1.83634 4.89016,1.83635 0.47817,0.42182 0.47816,0.42182 -0.38925,1.4885 L 484.51116,376 483.75558,375.9367 483,375.87331 Z m 6.4084,-5.36948 0.75765,-2.26614 v -2.4686 -2.4686 l -1.51329,-2.26525 -1.51328,-2.26526 -2.32005,-1.16563 -2.32004,-1.16563 -3.21795,-10e-4 -3.21795,-0.001 -1.94872,1.94872 -1.94872,1.94872 v 2.92386 2.92386 l 0.83334,1.09032 0.83333,1.09031 7,2.62716 7,2.62715 0.40901,-0.42338 0.40902,-0.42339 z m -349.08946,1.30468 -2.18046,-1.36903 -1.85354,-2.92273 -1.85354,-2.92273 -0.90604,-2.74535 -0.90605,-2.74535 h -0.42897 -0.42898 l -6.75735,2.27565 -6.75736,2.27564 -0.43707,-1.98998 -0.43707,-1.98999 0.2301,-0.19448 0.23011,-0.19448 13.66667,-4.51698 13.66666,-4.51698 2.50951,-1.25927 2.5095,-1.25926 0.72749,1.85173 0.72749,1.85173 1.26301,3.60437 1.263,3.60436 -0.01,4.0623 -0.01,4.0623 -0.82351,1.6024 -0.8235,1.6024 -1.78368,1.32403 -1.78367,1.32402 -3.21633,0.27735 -3.21632,0.27736 z m 7.83297,-3.69788 1.91965,-0.99269 0.4575,-1.44146 0.45751,-1.44146 v -3.06983 -3.06983 l -1.07329,-2.56874 -1.07329,-2.56874 -1.1703,0.5088 -1.1703,0.5088 -5.5,1.98183 -5.5,1.98184 v 0.62337 0.62336 l 1.70731,3.60898 1.70732,3.60897 1.71592,1.34974 1.71592,1.34975 h 1.94321 1.9432 z m 87.34748,-71.34065 V 234 H 290 361.33333 v 56.33333 56.33334 H 290 218.66667 Z m 45.83857,-16.8282 -15.49487,-15.5054 -5.33463,5.33463 -5.33462,5.33462 10.16023,10.16024 10.16023,10.16023 -10.15226,10.16814 -10.15226,10.16814 5.31103,5.34236 5.31103,5.34237 15.51049,-15.49997 15.5105,-15.49996 z M 336.66667,311 v -7 H 313.33333 290 v 7 7 h 23.33333 23.33334 z M 99,308.08604 l -2.666667,-1.218 -2.192523,-2.25369 -2.192523,-2.25369 -1.031962,-3.54983 -1.031962,-3.54982 0.788026,-3.28486 0.788026,-3.28486 1.876552,-2.59051 1.876553,-2.5905 3.116258,-1.50856 3.116262,-1.50855 4.16123,0.33402 4.16123,0.33402 2.82132,1.86707 2.82132,1.86706 1.73887,2.96716 1.73888,2.96717 -0.015,3.75183 -0.015,3.75183 -1.00282,2.33334 -1.00282,2.33333 -1.92666,1.92875 -1.92667,1.92875 -2.66667,1.22327 -2.66666,1.22328 h -3 -3 z m 370.66667,0.004 -2.66667,-1.21449 -2.43915,-2.70544 -2.43915,-2.70543 -0.74247,-3.57646 -0.74247,-3.57646 0.95875,-3.1857 0.95876,-3.1857 1.68846,-2.21368 1.68846,-2.21368 3.02714,-1.42293 3.02714,-1.42292 h 3.56908 3.56907 l 2.93819,1.538 2.93819,1.538 2.08362,3.07968 2.08363,3.07968 0.43112,2.88232 0.43112,2.88232 -0.99786,3.35617 -0.99786,3.35617 -2.18355,2.24451 -2.18355,2.24452 -2.66667,1.218 -2.66667,1.21801 h -3 -3 z M 111,240.25757 98.333333,235.95161 95.166667,235.2539 92,234.55618 v -1.14864 -1.14864 l 1.440461,-4.29612 1.44046,-4.29611 1.012937,-1.66667 1.012936,-1.66667 2.003992,-2.15973 2.003994,-2.15973 2.23803,-0.41986 2.23804,-0.41985 2.96407,1.13199 2.96408,1.13199 1.30669,1.66118 1.30669,1.66119 0.41883,2.79299 0.41883,2.79298 -1.05168,4.5348 -1.05169,4.53479 v 0.57032 0.57032 l 6.5,2.14586 6.5,2.14585 0.24673,0.21141 0.24673,0.21141 -0.4261,1.69771 -0.4261,1.69772 -0.82063,-0.0516 -0.82063,-0.0516 z m -0.38858,-8.29038 0.72191,-3.36615 v -1.93582 -1.93582 l -0.74508,-1.63528 -0.74509,-1.63529 -2.15443,-1.16024 -2.15444,-1.16024 -1.89806,0.47639 -1.89806,0.47638 -2.078525,2.20387 -2.078521,2.20388 -1.053208,3.25056 -1.053207,3.25057 1.095979,0.4481 1.095979,0.44809 5.333333,1.64909 5.33333,1.64909 0.77809,0.0695 0.77809,0.0695 z m 349.77886,11.21949 -2.60972,-0.70436 -2.73791,-2.74116 -2.73792,-2.74116 -1.1906,-3.1224 -1.1906,-3.1224 -4.46176,1.70471 -4.46177,1.70472 -1.16003,0.32704 -1.16003,0.32703 -0.5956,-1.57602 -0.59559,-1.57601 0.19626,-0.21842 0.19626,-0.21841 17.22603,-6.58323 17.22603,-6.58323 0.83334,1.09573 0.83333,1.09573 v 0.74389 0.74388 l -1.83333,0.71431 -1.83334,0.71431 2.02477,0.46934 2.02476,0.46934 1.55816,2.27397 1.55815,2.27398 -0.29568,3.56549 -0.29568,3.5655 -1.49747,2.103 -1.49747,2.10301 -2.78977,1.60521 -2.78977,1.60522 -2.66666,0.34288 L 463,243.89104 Z m 8.06635,-4.8091 3.45663,-1.60939 1.04337,-2.01765 1.04337,-2.01766 -0.002,-1.53311 -0.002,-1.5331 -1.32931,-2.18026 -1.32931,-2.18027 -1.58366,-0.72156 -1.58366,-0.72156 -6.65041,2.46685 -6.65041,2.46685 -0.93413,0.58527 -0.93413,0.58528 2,3.8497 2,3.8497 2.33333,1.16563 2.33334,1.16563 1.66666,-0.005 1.66667,-0.005 z m -324.14926,-19.08626 -0.43799,-0.70867 1.14433,-1.26446 1.14432,-1.26446 -0.38634,-1.52687 -0.38634,-1.52686 -1.85934,-2.14327 -1.85934,-2.14327 -13.56915,-2.31477 -13.56915,-2.31477 -0.31636,-0.31635 -0.31636,-0.31636 0.88551,-1.60686 0.88551,-1.60686 9.66666,1.79633 9.66667,1.79634 2.33333,0.5129 2.33334,0.51291 -1.86185,-1.4988 -1.86185,-1.49881 -6.30482,-7.29315 -6.30482,-7.29315 v -0.50861 -0.50861 l 0.8348,-1.14165 0.8348,-1.14166 10.05145,11.51424 10.05146,11.51423 1.76593,2.67758 1.76593,2.67757 0.39992,1.99961 0.39992,1.99962 -1.43382,1.82281 L 146.56989,220 h -0.91227 -0.91226 z m 299.14774,-8.6794 -2.87822,-1.46234 -1.78845,-2.308 -1.78844,-2.30799 -1.03672,-1.34572 -1.03671,-1.34572 -4.86223,3.11661 -4.86224,3.11661 -0.91181,-1.20435 -0.91182,-1.20435 0.19525,-0.66667 0.19525,-0.66667 15.47376,-9.58078 15.47375,-9.58078 1.30843,1.18411 1.30842,1.1841 v 0.51842 0.51842 L 456,189 l -1.33333,0.42318 v 0.62175 0.62174 h 1.61538 1.61539 l 2.02594,2.02594 2.02594,2.02594 0.43286,2.30739 0.43287,2.30739 -0.41545,2.21456 -0.41545,2.21456 -1.63301,2.21341 -1.63301,2.21342 -2.38668,1.69815 -2.38668,1.69815 -3.80572,0.24434 -3.80572,0.24434 z m 10.22724,-3.77978 1.31765,-0.70971 1.51592,-1.62113 1.51592,-1.62113 0.64404,-2.24562 0.64403,-2.24563 -1.20298,-2.3181 -1.20299,-2.3181 -2.37428,-1.23214 -2.37429,-1.23214 -7.08186,4.40353 -7.08186,4.40353 1.94292,2.82393 1.94291,2.82393 1.06037,0.88002 1.06037,0.88003 2.16256,0.458 2.16255,0.45799 2.01569,-0.43878 2.01568,-0.43877 z m -26.58318,-17.10769 -1.10658,-1.68885 2.67037,-4.36288 2.67037,-4.36287 -0.0116,-0.48826 -0.0116,-0.48826 -4.10874,-4.66666 -4.10873,-4.66667 -0.71301,0.19753 -0.71301,0.19754 -4.535,1.70745 -4.53499,1.70746 -1.31409,-1.18924 -1.31409,-1.18924 0.51575,-0.49366 0.51575,-0.49367 14,-5.45743 14,-5.45742 2.51625,-1.39655 2.51626,-1.39656 1.395,1.395 1.395,1.395 -8.51736,15.57023 -8.51736,15.57023 -0.79102,0.87331 -0.79103,0.87332 z m 9.17738,-19.48039 2.60988,-5.08355 2.55678,-2.95413 L 444,159.25224 v -0.33213 -0.33213 l -0.83333,0.48613 -0.83334,0.48613 -2.66666,1.77066 -2.66667,1.77066 -5.50078,2.19113 -5.50077,2.19114 3.40007,3.92475 3.40007,3.92475 0.43404,-0.003 0.43404,-0.003 z M 153.33333,181.24951 151,179.83734 l -5.58126,-4.68717 -5.58125,-4.68717 -2.12241,2.52802 -2.1224,2.52802 -1.48327,-0.79382 -1.48327,-0.79382 2.02026,-2.45093 2.02027,-2.45093 v -0.58549 -0.58549 l -1.66667,-1.311 -1.66667,-1.311 0.0102,-1.11828 0.0102,-1.11828 0.56576,-0.8926 0.56577,-0.89259 2.50354,2.19814 2.50355,2.19814 1.75381,-1.97846 1.75382,-1.97845 2.05189,-2.50641 2.05189,-2.50641 1.09732,1.21253 1.09732,1.21252 -3.29895,3.9668 -3.29895,3.96679 -0.0169,0.46659 -0.0169,0.4666 5.5,4.60635 5.5,4.60635 1.52518,0.79732 1.52518,0.79732 1.29354,-0.41055 1.29353,-0.41055 1.51072,-3.29305 1.51071,-3.29305 h 1.17057 1.17057 v 0.75599 0.75599 l -0.80048,2.67176 -0.80048,2.67176 -2.11157,2.23892 -2.11158,2.23892 -1.58794,-0.002 -1.58795,-0.002 z m 13.97646,-28.08284 -8.8553,-10.83334 -3.24235,-3.36959 -3.24236,-3.3696 1.61891,-1.52089 1.61892,-1.52089 4.89619,6.0197 4.8962,6.0197 0.54493,0.0375 0.54492,0.0375 -0.42639,-1.34344 -0.42639,-1.34343 1.37856,-2.23055 1.37855,-2.23055 2.53875,-1.75935 2.53874,-1.75935 1.2975,0.002 1.2975,0.002 2.02725,1.23627 2.02726,1.23626 3.68134,4.26124 3.68134,4.26125 2.56893,3.20395 2.56893,3.20396 -1.46614,1.46271 -1.46614,1.46271 -0.47805,-0.70754 -0.47806,-0.70754 -5.50357,-6.68171 -5.50357,-6.68172 -1.57231,-0.84148 -1.57231,-0.84147 -2.02642,1.0479 -2.02643,1.0479 -1.39769,2.26152 -1.3977,2.26152 v 1.39601 1.396 l 5.10245,6.19197 5.10246,6.19198 1.05536,1.22688 1.05537,1.22687 -1.28524,0.93979 L 177.07849,164 h -0.4567 -0.45671 z m 201.39197,-12.20358 -8.9649,-4.33734 -0.25578,-0.25578 -0.25577,-0.25577 0.72377,-1.35238 0.72377,-1.35238 3.74644,1.65685 3.74645,1.65686 0.17145,-0.19491 0.17145,-0.19491 2.17416,-4.33333 2.17416,-4.33333 3.866,-8.17669 3.866,-8.17668 -4.01306,-2.02579 -4.01306,-2.02578 0.86327,-1.13087 0.86327,-1.13086 0.12146,-0.2106 0.12147,-0.2106 9.18757,4.38655 9.18757,4.38654 0.26695,0.26696 0.26696,0.26695 -0.73601,1.37525 -0.73601,1.37525 -3.75381,-1.66012 -3.75382,-1.66011 -0.15387,0.1753 -0.15388,0.1753 -3.17184,6.33333 -3.17184,6.33333 -2.8702,6.17471 -2.87021,6.1747 3.9648,2.00143 3.96481,2.00143 -0.82677,1.32386 -0.82677,1.32387 -0.33964,-0.0164 -0.33963,-0.0164 z m -163.03509,1.21146 -1.33334,-0.22646 -1.48777,-0.31701 -1.48777,-0.31701 -2.38484,-2.09392 -2.38484,-2.09391 -1.27639,-2.50194 -1.2764,-2.50195 -0.43778,-2.73774 -0.43779,-2.73775 1.14631,-3.00157 1.14631,-3.00156 2.35384,-1.79537 2.35385,-1.79536 4.08664,-0.25157 4.08663,-0.25157 2.33334,1.57615 2.33333,1.57615 2.12856,3.16721 2.12856,3.16721 0.43792,2.92022 0.43791,2.92022 -0.45629,2.07746 -0.45628,2.07746 -1.6821,1.99906 -1.6821,1.99906 -1.4124,0.75589 -1.41241,0.7559 -2.01569,0.42958 L 207,142.40101 Z M 212.5,136.3079 214,134.59232 v -2.70594 -2.70594 l -1.68295,-3.09022 -1.68296,-3.09022 -2.19163,-1.5 -2.19163,-1.5 h -2.51003 -2.51003 l -1.94872,1.94872 -1.94872,1.94872 v 2.63653 2.63653 l 0.95013,2.27396 0.95012,2.27397 1.88321,1.89989 1.88321,1.8999 1.94693,0.82844 1.94693,0.82844 2.05307,-0.5758 L 211,138.02349 Z m 15.93798,-17.04849 -3.84569,-12.07392 0.20385,-0.17659 0.20386,-0.1766 1.48208,-0.45539 1.48208,-0.45538 0.96354,2.2059 0.96353,2.2059 0.0544,-1.73 0.0544,-1.73001 1.19107,-1.0779 1.19106,-1.0779 2.45419,-1.02543 2.45419,-1.02542 h 2.31757 2.31757 l 1.77056,1.52297 1.77057,1.52298 3.16306,9.64369 3.16307,9.64369 -1.72979,0.78364 -1.72979,0.78364 -2.80225,-8.67788 -2.80225,-8.67789 -0.83702,-1.00854 -0.83701,-1.00854 -1.58539,-0.60276 -1.58538,-0.60276 -2.88579,1.27652 -2.88578,1.27652 -1.05042,1.60313 -1.05041,1.60313 2.95993,9.27439 2.95993,9.27439 -0.79908,0.50796 -0.79908,0.50797 -1.02483,0.0102 -1.02483,0.0102 z m 111.89535,10.09327 -6.66666,-1.85304 -2.81918,-0.77171 -2.81918,-0.7717 0.96175,-2.47811 0.96174,-2.47812 3.35687,-12.66667 3.35686,-12.666663 5.7e-4,-1.916667 5.7e-4,-1.916667 2.11805,0.423611 2.11806,0.423612 0.26147,0.26147 0.26147,0.261471 -4.0579,15.164323 -4.05791,15.16432 0.2831,0.28309 0.2831,0.2831 7.96392,2.1175 7.96392,2.1175 -0.67052,1.5 -0.67052,1.5 -0.73145,-0.0638 L 347,131.20572 Z m -33.92738,-6.49701 -1.26072,-0.32299 -1.80925,-1.10028 -1.80926,-1.10027 -1.66956,-1.9994 -1.66957,-1.9994 -1.20636,-2.33333 -1.20636,-2.33333 -0.30136,-5.07914 -0.30136,-5.07913 0.81696,-2.587534 0.81695,-2.587533 1.58204,-2.463149 1.58204,-2.463149 2.94663,-1.726838 2.94663,-1.726838 3.39706,-0.402332 3.39706,-0.402331 2.95206,1.127402 2.95206,1.127403 0.80081,0.964916 0.80081,0.964916 -0.81536,0.982443 -0.81535,0.982443 -2.02225,-1.045745 -2.02224,-1.045744 -3.2027,0.02481 -3.2027,0.02481 -1.98246,1.025174 -1.98247,1.025174 -1.40412,1.785043 -1.40411,1.785042 -1.05603,3.632607 -1.05603,3.6326 0.44071,3.52733 0.44071,3.52733 1.96893,3.10468 1.96894,3.10468 2.82497,1.28235 2.82497,1.28236 1.78993,0.0146 1.78993,0.0146 1.69792,-0.64555 1.69791,-0.64554 0.71287,1.332 0.71287,1.33201 -2.34597,0.9802 -2.34597,0.98021 -2.85475,-0.0773 -2.85474,-0.0773 z"
         id="path2" />
    </g>
  </g>
</svg>
